<mxfile host="Electron" agent="Mozilla/5.0 (X11; Linux x86_64) AppleWebKit/537.36 (KHTML, like Gecko) draw.io/24.7.17 Chrome/128.0.6613.36 Electron/32.0.1 Safari/537.36" version="24.7.17">
  <diagram name="Page-1" id="uqv7fCo5bTJ5ZhZfO4SZ">
    <mxGraphModel dx="4187" dy="3414" grid="1" gridSize="10" guides="1" tooltips="1" connect="1" arrows="1" fold="1" page="1" pageScale="1" pageWidth="2500" pageHeight="2500" math="0" shadow="0">
      <root>
        <mxCell id="0" />
        <mxCell id="1" parent="0" />
        <mxCell id="1b7-D6uKj-gsO6m6T2Pv-169" value="GuiClient" style="rounded=1;whiteSpace=wrap;html=1;fillColor=none;dashed=1;verticalAlign=top;fontSize=15;fontStyle=1" parent="1" vertex="1">
          <mxGeometry x="-1720" y="-1760" width="200" height="540" as="geometry" />
        </mxCell>
        <mxCell id="1b7-D6uKj-gsO6m6T2Pv-168" value="MessageHandler" style="rounded=1;whiteSpace=wrap;html=1;fillColor=none;dashed=1;verticalAlign=top;fontSize=15;fontStyle=1" parent="1" vertex="1">
          <mxGeometry x="-460" y="-1700" width="160" height="480" as="geometry" />
        </mxCell>
        <mxCell id="Qe3F9I1hZKyghtVbv9CF-4" value="" style="rounded=0;whiteSpace=wrap;html=1;fillColor=none;dashed=1;" parent="1" vertex="1">
          <mxGeometry x="-1880" y="-1080" width="600" height="770" as="geometry" />
        </mxCell>
        <mxCell id="1b7-D6uKj-gsO6m6T2Pv-167" value="FileProcessor" style="rounded=1;whiteSpace=wrap;html=1;fillColor=none;dashed=1;verticalAlign=top;fontSize=15;fontStyle=1" parent="1" vertex="1">
          <mxGeometry x="-1180" y="-2160" width="360" height="140" as="geometry" />
        </mxCell>
        <mxCell id="1b7-D6uKj-gsO6m6T2Pv-50" style="edgeStyle=orthogonalEdgeStyle;rounded=0;orthogonalLoop=1;jettySize=auto;html=1;entryX=0;entryY=0.5;entryDx=0;entryDy=0;exitX=0.5;exitY=1;exitDx=0;exitDy=0;dashed=1;endArrow=block;endFill=1;" parent="1" source="TQEX-bvaSzcbGmNimmWH-2" target="TQEX-bvaSzcbGmNimmWH-41" edge="1">
          <mxGeometry relative="1" as="geometry" />
        </mxCell>
        <mxCell id="TQEX-bvaSzcbGmNimmWH-2" value="Sender" style="rounded=1;whiteSpace=wrap;html=1;strokeWidth=3;fontSize=18;fontStyle=1" parent="1" vertex="1">
          <mxGeometry x="-1160" y="-1080" width="120" height="80" as="geometry" />
        </mxCell>
        <mxCell id="TQEX-bvaSzcbGmNimmWH-67" style="edgeStyle=orthogonalEdgeStyle;rounded=0;orthogonalLoop=1;jettySize=auto;html=1;entryX=0.75;entryY=1;entryDx=0;entryDy=0;endArrow=block;endFill=1;entryPerimeter=0;" parent="1" source="TQEX-bvaSzcbGmNimmWH-4" target="TQEX-bvaSzcbGmNimmWH-48" edge="1">
          <mxGeometry relative="1" as="geometry">
            <Array as="points">
              <mxPoint x="-900" y="-1090" />
              <mxPoint x="-900" y="-1090" />
            </Array>
            <mxPoint x="-950" y="-1190" as="targetPoint" />
          </mxGeometry>
        </mxCell>
        <mxCell id="TQEX-bvaSzcbGmNimmWH-4" value="Receiver" style="rounded=1;whiteSpace=wrap;html=1;strokeWidth=3;fontSize=18;fontStyle=1" parent="1" vertex="1">
          <mxGeometry x="-960" y="-1080" width="120" height="80" as="geometry" />
        </mxCell>
        <mxCell id="TQEX-bvaSzcbGmNimmWH-8" value="Composer" style="rounded=1;whiteSpace=wrap;html=1;strokeWidth=3;fontSize=18;fontStyle=1" parent="1" vertex="1">
          <mxGeometry x="-440" y="-1640" width="120" height="80" as="geometry" />
        </mxCell>
        <mxCell id="TQEX-bvaSzcbGmNimmWH-12" value="Parser" style="rounded=1;whiteSpace=wrap;html=1;strokeWidth=3;fontSize=18;fontStyle=1" parent="1" vertex="1">
          <mxGeometry x="-440" y="-1320" width="120" height="80" as="geometry" />
        </mxCell>
        <mxCell id="TQEX-bvaSzcbGmNimmWH-77" style="edgeStyle=orthogonalEdgeStyle;rounded=0;orthogonalLoop=1;jettySize=auto;html=1;endArrow=block;endFill=1;exitX=0.25;exitY=0;exitDx=0;exitDy=0;entryX=0.2;entryY=0;entryDx=0;entryDy=0;entryPerimeter=0;" parent="1" source="TQEX-bvaSzcbGmNimmWH-14" target="TQEX-bvaSzcbGmNimmWH-48" edge="1">
          <mxGeometry relative="1" as="geometry">
            <Array as="points">
              <mxPoint x="-1660" y="-1720" />
              <mxPoint x="-1120" y="-1720" />
            </Array>
            <mxPoint x="-1150" y="-1720" as="targetPoint" />
          </mxGeometry>
        </mxCell>
        <mxCell id="TQEX-bvaSzcbGmNimmWH-80" style="edgeStyle=orthogonalEdgeStyle;rounded=0;orthogonalLoop=1;jettySize=auto;html=1;entryX=0.1;entryY=0;entryDx=0;entryDy=0;endArrow=block;endFill=1;startArrow=block;startFill=0;exitX=0.5;exitY=0;exitDx=0;exitDy=0;entryPerimeter=0;" parent="1" source="TQEX-bvaSzcbGmNimmWH-14" target="TQEX-bvaSzcbGmNimmWH-48" edge="1">
          <mxGeometry relative="1" as="geometry">
            <Array as="points">
              <mxPoint x="-1620" y="-1700" />
              <mxPoint x="-1160" y="-1700" />
            </Array>
          </mxGeometry>
        </mxCell>
        <mxCell id="TQEX-bvaSzcbGmNimmWH-82" style="edgeStyle=orthogonalEdgeStyle;rounded=0;orthogonalLoop=1;jettySize=auto;html=1;exitX=0.75;exitY=0;exitDx=0;exitDy=0;entryX=0;entryY=0.05;entryDx=0;entryDy=0;endArrow=block;endFill=1;startArrow=block;startFill=0;entryPerimeter=0;" parent="1" source="TQEX-bvaSzcbGmNimmWH-14" target="TQEX-bvaSzcbGmNimmWH-48" edge="1">
          <mxGeometry relative="1" as="geometry">
            <Array as="points">
              <mxPoint x="-1580" y="-1680" />
              <mxPoint x="-1450" y="-1680" />
              <mxPoint x="-1450" y="-1620" />
            </Array>
          </mxGeometry>
        </mxCell>
        <mxCell id="TQEX-bvaSzcbGmNimmWH-14" value="Poller" style="rounded=1;whiteSpace=wrap;html=1;strokeWidth=3;fontSize=18;fontStyle=1" parent="1" vertex="1">
          <mxGeometry x="-1700" y="-1660" width="160" height="120" as="geometry" />
        </mxCell>
        <mxCell id="TQEX-bvaSzcbGmNimmWH-16" style="edgeStyle=orthogonalEdgeStyle;rounded=0;orthogonalLoop=1;jettySize=auto;html=1;exitX=0;exitY=0.5;exitDx=0;exitDy=0;entryX=0.5;entryY=1;entryDx=0;entryDy=0;dashed=1;endArrow=block;endFill=1;" parent="1" source="TQEX-bvaSzcbGmNimmWH-17" target="TQEX-bvaSzcbGmNimmWH-43" edge="1">
          <mxGeometry relative="1" as="geometry" />
        </mxCell>
        <mxCell id="TQEX-bvaSzcbGmNimmWH-17" value="Shower" style="rounded=1;whiteSpace=wrap;html=1;strokeWidth=3;fontSize=18;fontStyle=1" parent="1" vertex="1">
          <mxGeometry x="-1680" y="-1320" width="120" height="80" as="geometry" />
        </mxCell>
        <mxCell id="TQEX-bvaSzcbGmNimmWH-18" style="edgeStyle=orthogonalEdgeStyle;rounded=0;orthogonalLoop=1;jettySize=auto;html=1;entryX=1;entryY=0.5;entryDx=0;entryDy=0;dashed=1;endArrow=block;endFill=1;" parent="1" source="TQEX-bvaSzcbGmNimmWH-19" target="TQEX-bvaSzcbGmNimmWH-45" edge="1">
          <mxGeometry relative="1" as="geometry">
            <Array as="points">
              <mxPoint x="-900" y="-2240" />
            </Array>
          </mxGeometry>
        </mxCell>
        <mxCell id="TQEX-bvaSzcbGmNimmWH-19" value="Writer" style="rounded=1;whiteSpace=wrap;html=1;strokeWidth=3;fontSize=18;fontStyle=1" parent="1" vertex="1">
          <mxGeometry x="-960" y="-2120" width="120" height="80" as="geometry" />
        </mxCell>
        <mxCell id="TQEX-bvaSzcbGmNimmWH-24" value="Reader" style="rounded=1;whiteSpace=wrap;html=1;strokeWidth=3;fontSize=18;fontStyle=1" parent="1" vertex="1">
          <mxGeometry x="-1160" y="-2120" width="120" height="80" as="geometry" />
        </mxCell>
        <mxCell id="1b7-D6uKj-gsO6m6T2Pv-59" style="edgeStyle=orthogonalEdgeStyle;rounded=0;orthogonalLoop=1;jettySize=auto;html=1;entryX=0.5;entryY=1;entryDx=0;entryDy=0;dashed=1;endArrow=block;endFill=0;" parent="1" source="TQEX-bvaSzcbGmNimmWH-41" target="TQEX-bvaSzcbGmNimmWH-4" edge="1">
          <mxGeometry relative="1" as="geometry">
            <Array as="points">
              <mxPoint x="-900" y="-900" />
            </Array>
          </mxGeometry>
        </mxCell>
        <mxCell id="TQEX-bvaSzcbGmNimmWH-41" value="Network Client" style="ellipse;whiteSpace=wrap;html=1;dashed=1;" parent="1" vertex="1">
          <mxGeometry x="-1050" y="-940" width="100" height="80" as="geometry" />
        </mxCell>
        <mxCell id="TQEX-bvaSzcbGmNimmWH-42" style="edgeStyle=orthogonalEdgeStyle;rounded=0;orthogonalLoop=1;jettySize=auto;html=1;exitX=0.5;exitY=0;exitDx=0;exitDy=0;entryX=0;entryY=0.5;entryDx=0;entryDy=0;dashed=1;endArrow=block;endFill=1;startArrow=classic;startFill=1;" parent="1" source="TQEX-bvaSzcbGmNimmWH-43" target="TQEX-bvaSzcbGmNimmWH-14" edge="1">
          <mxGeometry relative="1" as="geometry" />
        </mxCell>
        <mxCell id="TQEX-bvaSzcbGmNimmWH-43" value="GUI&lt;br&gt;Framewrok" style="ellipse;whiteSpace=wrap;html=1;dashed=1;" parent="1" vertex="1">
          <mxGeometry x="-1940" y="-1480" width="100" height="80" as="geometry" />
        </mxCell>
        <mxCell id="TQEX-bvaSzcbGmNimmWH-44" style="edgeStyle=orthogonalEdgeStyle;rounded=0;orthogonalLoop=1;jettySize=auto;html=1;exitX=0;exitY=0.5;exitDx=0;exitDy=0;dashed=1;entryX=0.5;entryY=0;entryDx=0;entryDy=0;endArrow=block;endFill=0;startArrow=classic;startFill=1;" parent="1" source="TQEX-bvaSzcbGmNimmWH-45" target="TQEX-bvaSzcbGmNimmWH-24" edge="1">
          <mxGeometry relative="1" as="geometry">
            <Array as="points">
              <mxPoint x="-1100" y="-2240" />
            </Array>
          </mxGeometry>
        </mxCell>
        <mxCell id="TQEX-bvaSzcbGmNimmWH-45" value="File System" style="ellipse;whiteSpace=wrap;html=1;dashed=1;" parent="1" vertex="1">
          <mxGeometry x="-1050" y="-2280" width="100" height="80" as="geometry" />
        </mxCell>
        <mxCell id="TQEX-bvaSzcbGmNimmWH-48" value="Manager" style="rounded=1;whiteSpace=wrap;html=1;strokeWidth=3;fontSize=18;fontStyle=1;verticalAlign=middle;points=[[0,0.05,0,0,0],[0,0.15,0,0,0],[0,0.25,0,0,0],[0,0.35,0,0,0],[0,0.45,0,0,0],[0,0.55,0,0,0],[0,0.65,0,0,0],[0,0.75,0,0,0],[0,0.85,0,0,0],[0,0.95,0,0,0],[0.1,0,0,0,0],[0.2,0,0,0,0],[0.25,1,0,0,0],[0.3,0,0,0,0],[0.4,0,0,0,0],[0.5,0,0,0,0],[0.5,1,0,0,0],[0.6,0,0,0,0],[0.7,0,0,0,0],[0.75,1,0,0,0],[0.8,0,0,0,0],[0.9,0,0,0,0],[1,0.12,0,0,0],[1,0.25,0,0,0],[1,0.38,0,0,0],[1,0.5,0,0,0],[1,0.63,0,0,0],[1,0.75,0,0,0],[1,0.88,0,0,0]];absoluteArcSize=1;arcSize=48;" parent="1" vertex="1">
          <mxGeometry x="-1200" y="-1640" width="400" height="400" as="geometry" />
        </mxCell>
        <mxCell id="TQEX-bvaSzcbGmNimmWH-84" style="edgeStyle=orthogonalEdgeStyle;rounded=0;orthogonalLoop=1;jettySize=auto;html=1;entryX=0.5;entryY=0;entryDx=0;entryDy=0;endArrow=block;endFill=1;startArrow=block;startFill=0;exitX=1;exitY=0.12;exitDx=0;exitDy=0;exitPerimeter=0;" parent="1" source="TQEX-bvaSzcbGmNimmWH-48" target="TQEX-bvaSzcbGmNimmWH-8" edge="1">
          <mxGeometry relative="1" as="geometry">
            <mxPoint x="-710" y="-1444.9999999999998" as="sourcePoint" />
            <Array as="points">
              <mxPoint x="-760" y="-1592" />
              <mxPoint x="-760" y="-1660" />
              <mxPoint x="-380" y="-1660" />
            </Array>
          </mxGeometry>
        </mxCell>
        <mxCell id="1b7-D6uKj-gsO6m6T2Pv-15" style="edgeStyle=orthogonalEdgeStyle;rounded=0;orthogonalLoop=1;jettySize=auto;html=1;entryX=0;entryY=0.25;entryDx=0;entryDy=0;endArrow=block;endFill=1;exitX=1;exitY=0.25;exitDx=0;exitDy=0;exitPerimeter=0;" parent="1" source="TQEX-bvaSzcbGmNimmWH-48" target="TQEX-bvaSzcbGmNimmWH-8" edge="1">
          <mxGeometry relative="1" as="geometry">
            <mxPoint x="-710" y="-1424.9999999999995" as="sourcePoint" />
            <Array as="points">
              <mxPoint x="-720" y="-1540" />
              <mxPoint x="-720" y="-1620" />
            </Array>
          </mxGeometry>
        </mxCell>
        <mxCell id="1b7-D6uKj-gsO6m6T2Pv-24" style="edgeStyle=orthogonalEdgeStyle;rounded=0;orthogonalLoop=1;jettySize=auto;html=1;entryX=0;entryY=0.75;entryDx=0;entryDy=0;endArrow=classic;endFill=1;startArrow=block;startFill=0;exitX=1;exitY=0.38;exitDx=0;exitDy=0;exitPerimeter=0;" parent="1" source="TQEX-bvaSzcbGmNimmWH-48" target="TQEX-bvaSzcbGmNimmWH-8" edge="1">
          <mxGeometry relative="1" as="geometry">
            <mxPoint x="-710" y="-1404.9999999999995" as="sourcePoint" />
            <Array as="points">
              <mxPoint x="-680" y="-1488" />
              <mxPoint x="-680" y="-1580" />
            </Array>
          </mxGeometry>
        </mxCell>
        <mxCell id="1b7-D6uKj-gsO6m6T2Pv-29" style="edgeStyle=orthogonalEdgeStyle;rounded=0;orthogonalLoop=1;jettySize=auto;html=1;entryX=0;entryY=0.75;entryDx=0;entryDy=0;startArrow=block;startFill=0;exitX=1;exitY=0.88;exitDx=0;exitDy=0;exitPerimeter=0;" parent="1" source="TQEX-bvaSzcbGmNimmWH-48" target="TQEX-bvaSzcbGmNimmWH-12" edge="1">
          <mxGeometry relative="1" as="geometry">
            <mxPoint x="-710" y="-1345" as="sourcePoint" />
            <Array as="points">
              <mxPoint x="-740" y="-1288" />
              <mxPoint x="-740" y="-1260" />
            </Array>
          </mxGeometry>
        </mxCell>
        <mxCell id="TQEX-bvaSzcbGmNimmWH-69" style="edgeStyle=orthogonalEdgeStyle;rounded=0;orthogonalLoop=1;jettySize=auto;html=1;entryX=0.5;entryY=0;entryDx=0;entryDy=0;startArrow=block;startFill=0;endArrow=block;endFill=1;exitX=1;exitY=0.63;exitDx=0;exitDy=0;exitPerimeter=0;" parent="1" source="TQEX-bvaSzcbGmNimmWH-48" target="TQEX-bvaSzcbGmNimmWH-12" edge="1">
          <mxGeometry relative="1" as="geometry">
            <Array as="points">
              <mxPoint x="-380" y="-1388" />
            </Array>
            <mxPoint x="-710" y="-1385" as="sourcePoint" />
          </mxGeometry>
        </mxCell>
        <mxCell id="1b7-D6uKj-gsO6m6T2Pv-13" style="edgeStyle=orthogonalEdgeStyle;rounded=0;orthogonalLoop=1;jettySize=auto;html=1;endArrow=block;endFill=1;entryX=0;entryY=0.25;entryDx=0;entryDy=0;exitX=1;exitY=0.75;exitDx=0;exitDy=0;exitPerimeter=0;" parent="1" source="TQEX-bvaSzcbGmNimmWH-48" target="TQEX-bvaSzcbGmNimmWH-12" edge="1">
          <mxGeometry relative="1" as="geometry">
            <mxPoint x="-730" y="-1350" as="sourcePoint" />
            <mxPoint x="-480" y="-1295" as="targetPoint" />
            <Array as="points">
              <mxPoint x="-700" y="-1340" />
              <mxPoint x="-700" y="-1300" />
            </Array>
          </mxGeometry>
        </mxCell>
        <mxCell id="1b7-D6uKj-gsO6m6T2Pv-18" style="edgeStyle=orthogonalEdgeStyle;rounded=0;orthogonalLoop=1;jettySize=auto;html=1;endArrow=block;endFill=1;entryX=1;entryY=0.25;entryDx=0;entryDy=0;exitX=0;exitY=0.15;exitDx=0;exitDy=0;exitPerimeter=0;" parent="1" source="TQEX-bvaSzcbGmNimmWH-48" target="TQEX-bvaSzcbGmNimmWH-14" edge="1">
          <mxGeometry relative="1" as="geometry">
            <mxPoint x="-1470" y="-1660" as="targetPoint" />
            <Array as="points">
              <mxPoint x="-1470" y="-1580" />
              <mxPoint x="-1470" y="-1630" />
            </Array>
          </mxGeometry>
        </mxCell>
        <mxCell id="1b7-D6uKj-gsO6m6T2Pv-35" style="edgeStyle=orthogonalEdgeStyle;rounded=0;orthogonalLoop=1;jettySize=auto;html=1;startArrow=block;startFill=0;entryX=1;entryY=0.75;entryDx=0;entryDy=0;exitX=0;exitY=0.75;exitDx=0;exitDy=0;exitPerimeter=0;" parent="1" source="TQEX-bvaSzcbGmNimmWH-48" target="TQEX-bvaSzcbGmNimmWH-17" edge="1">
          <mxGeometry relative="1" as="geometry">
            <mxPoint x="-1260" y="-1410" as="sourcePoint" />
            <mxPoint x="-1390" y="-1300" as="targetPoint" />
            <Array as="points">
              <mxPoint x="-1420" y="-1340" />
              <mxPoint x="-1420" y="-1260" />
            </Array>
          </mxGeometry>
        </mxCell>
        <mxCell id="TQEX-bvaSzcbGmNimmWH-79" style="edgeStyle=orthogonalEdgeStyle;rounded=0;orthogonalLoop=1;jettySize=auto;html=1;entryX=0.5;entryY=0;entryDx=0;entryDy=0;endArrow=block;endFill=1;exitX=0.25;exitY=1;exitDx=0;exitDy=0;exitPerimeter=0;" parent="1" source="TQEX-bvaSzcbGmNimmWH-48" target="TQEX-bvaSzcbGmNimmWH-2" edge="1">
          <mxGeometry relative="1" as="geometry">
            <mxPoint x="-1070" y="-1190" as="sourcePoint" />
          </mxGeometry>
        </mxCell>
        <mxCell id="TQEX-bvaSzcbGmNimmWH-68" value="on_reception&lt;div&gt;(struct CanMsg)&lt;/div&gt;&lt;div&gt;callback&lt;/div&gt;" style="text;html=1;align=left;verticalAlign=middle;whiteSpace=wrap;rounded=0;" parent="1" vertex="1">
          <mxGeometry x="-900" y="-1220" width="90" height="80" as="geometry" />
        </mxCell>
        <mxCell id="TQEX-bvaSzcbGmNimmWH-70" value="struct ParsedMsg&lt;div&gt;parse&lt;div&gt;(struct CanMsg)&lt;/div&gt;&lt;/div&gt;" style="text;html=1;align=center;verticalAlign=bottom;whiteSpace=wrap;rounded=0;" parent="1" vertex="1">
          <mxGeometry x="-780" y="-1440" width="300" height="50" as="geometry" />
        </mxCell>
        <mxCell id="TQEX-bvaSzcbGmNimmWH-72" value="&amp;lt;- Data to be shown&lt;div&gt;Control Events -&amp;gt;&lt;/div&gt;" style="text;html=1;align=center;verticalAlign=bottom;whiteSpace=wrap;rounded=0;" parent="1" vertex="1">
          <mxGeometry x="-1870" y="-1630" width="130" height="30" as="geometry" />
        </mxCell>
        <mxCell id="TQEX-bvaSzcbGmNimmWH-71" style="edgeStyle=orthogonalEdgeStyle;rounded=0;orthogonalLoop=1;jettySize=auto;html=1;entryX=0.5;entryY=0;entryDx=0;entryDy=0;endArrow=block;endFill=1;jumpStyle=arc;jumpSize=12;exitX=0;exitY=0.55;exitDx=0;exitDy=0;exitPerimeter=0;" parent="1" source="TQEX-bvaSzcbGmNimmWH-48" target="TQEX-bvaSzcbGmNimmWH-17" edge="1">
          <mxGeometry relative="1" as="geometry">
            <Array as="points">
              <mxPoint x="-1620" y="-1420" />
            </Array>
            <mxPoint x="-1280" y="-1430" as="sourcePoint" />
          </mxGeometry>
        </mxCell>
        <mxCell id="TQEX-bvaSzcbGmNimmWH-76" value="send&lt;br&gt;(struct CanMsg)" style="text;html=1;align=left;verticalAlign=middle;whiteSpace=wrap;rounded=0;" parent="1" vertex="1">
          <mxGeometry x="-1100" y="-1220" width="90" height="80" as="geometry" />
        </mxCell>
        <mxCell id="TQEX-bvaSzcbGmNimmWH-78" value="on_sending&lt;div&gt;(struct CanMsg)&lt;/div&gt;&lt;div&gt;callback&lt;/div&gt;" style="text;html=1;align=center;verticalAlign=bottom;whiteSpace=wrap;rounded=0;" parent="1" vertex="1">
          <mxGeometry x="-1500" y="-1770" width="360" height="50" as="geometry" />
        </mxCell>
        <mxCell id="TQEX-bvaSzcbGmNimmWH-81" value="struct ParsedMsg&lt;div&gt;on_raw_msg_setting&lt;div&gt;(struct CanMsg)&lt;/div&gt;&lt;div&gt;callback&lt;/div&gt;&lt;/div&gt;" style="text;html=1;align=left;verticalAlign=bottom;whiteSpace=wrap;rounded=0;" parent="1" vertex="1">
          <mxGeometry x="-1280" y="-1700" width="120" height="60" as="geometry" />
        </mxCell>
        <mxCell id="TQEX-bvaSzcbGmNimmWH-83" value="&lt;div&gt;struct CanMsg&lt;/div&gt;&lt;div&gt;on_parsed_msg_setting&lt;div&gt;(struct ParsedMsg)&lt;/div&gt;&lt;div&gt;callback&lt;/div&gt;&lt;/div&gt;" style="text;html=1;align=left;verticalAlign=bottom;whiteSpace=wrap;rounded=0;" parent="1" vertex="1">
          <mxGeometry x="-1450" y="-1680" width="140" height="60" as="geometry" />
        </mxCell>
        <mxCell id="TQEX-bvaSzcbGmNimmWH-85" value="&lt;div&gt;struct CanMsg&lt;/div&gt;&lt;div&gt;compose&lt;div&gt;(struct ParsedMsg)&lt;/div&gt;&lt;/div&gt;" style="text;html=1;align=center;verticalAlign=bottom;whiteSpace=wrap;rounded=0;" parent="1" vertex="1">
          <mxGeometry x="-740" y="-1710" width="260" height="50" as="geometry" />
        </mxCell>
        <mxCell id="1b7-D6uKj-gsO6m6T2Pv-11" style="edgeStyle=orthogonalEdgeStyle;rounded=0;orthogonalLoop=1;jettySize=auto;html=1;exitX=0.8;exitY=0;exitDx=0;exitDy=0;endArrow=classic;endFill=1;startArrow=block;startFill=0;entryX=0.5;entryY=1;entryDx=0;entryDy=0;exitPerimeter=0;" parent="1" source="TQEX-bvaSzcbGmNimmWH-48" target="TQEX-bvaSzcbGmNimmWH-24" edge="1">
          <mxGeometry relative="1" as="geometry">
            <Array as="points">
              <mxPoint x="-880" y="-1900" />
              <mxPoint x="-1100" y="-1900" />
            </Array>
          </mxGeometry>
        </mxCell>
        <mxCell id="1b7-D6uKj-gsO6m6T2Pv-26" style="edgeStyle=orthogonalEdgeStyle;rounded=0;orthogonalLoop=1;jettySize=auto;html=1;exitX=0.9;exitY=0;exitDx=0;exitDy=0;entryX=0.5;entryY=1;entryDx=0;entryDy=0;exitPerimeter=0;" parent="1" source="TQEX-bvaSzcbGmNimmWH-48" target="TQEX-bvaSzcbGmNimmWH-19" edge="1">
          <mxGeometry relative="1" as="geometry">
            <mxPoint x="-848" y="-1640.0100000000002" as="sourcePoint" />
            <mxPoint x="-850" y="-1940.0100000000002" as="targetPoint" />
            <Array as="points">
              <mxPoint x="-840" y="-1920" />
              <mxPoint x="-900" y="-1920" />
            </Array>
          </mxGeometry>
        </mxCell>
        <mxCell id="1b7-D6uKj-gsO6m6T2Pv-12" value="struct MsgType[],&lt;div&gt;struct MsgWidgetDescription[],&lt;/div&gt;&lt;div&gt;struct Node[]&lt;br&gt;&lt;div&gt;read&lt;span style=&quot;background-color: initial;&quot;&gt;()&lt;/span&gt;&lt;/div&gt;&lt;/div&gt;" style="text;html=1;align=left;verticalAlign=middle;whiteSpace=wrap;rounded=0;" parent="1" vertex="1">
          <mxGeometry x="-1100" y="-2000" width="170" height="80" as="geometry" />
        </mxCell>
        <mxCell id="1b7-D6uKj-gsO6m6T2Pv-14" value="&lt;div&gt;addMsgTypes&lt;div&gt;(struct MsgType[])&lt;/div&gt;&lt;/div&gt;" style="text;html=1;align=center;verticalAlign=bottom;whiteSpace=wrap;rounded=0;" parent="1" vertex="1">
          <mxGeometry x="-680" y="-1330" width="200" height="30" as="geometry" />
        </mxCell>
        <mxCell id="1b7-D6uKj-gsO6m6T2Pv-16" value="&lt;div&gt;addMsgTypes&lt;div&gt;(struct MsgType[])&lt;/div&gt;&lt;/div&gt;" style="text;html=1;align=center;verticalAlign=bottom;whiteSpace=wrap;rounded=0;" parent="1" vertex="1">
          <mxGeometry x="-700" y="-1650" width="220" height="30" as="geometry" />
        </mxCell>
        <mxCell id="1b7-D6uKj-gsO6m6T2Pv-19" value="&lt;div&gt;&lt;span style=&quot;background-color: initial;&quot;&gt;placeWidgets&lt;/span&gt;&lt;/div&gt;&lt;div&gt;&lt;span style=&quot;background-color: initial;&quot;&gt;(&lt;/span&gt;&lt;span style=&quot;background-color: initial;&quot;&gt;struct MsgWidgetDescription[]&lt;/span&gt;&lt;span style=&quot;background-color: initial;&quot;&gt;)&lt;/span&gt;&lt;/div&gt;" style="text;html=1;align=center;verticalAlign=bottom;whiteSpace=wrap;rounded=0;" parent="1" vertex="1">
          <mxGeometry x="-1450" y="-1610" width="230" height="30" as="geometry" />
        </mxCell>
        <mxCell id="1b7-D6uKj-gsO6m6T2Pv-21" style="edgeStyle=orthogonalEdgeStyle;rounded=0;orthogonalLoop=1;jettySize=auto;html=1;entryX=1;entryY=0.25;entryDx=0;entryDy=0;exitX=0;exitY=0.65;exitDx=0;exitDy=0;endArrow=block;endFill=1;exitPerimeter=0;" parent="1" source="TQEX-bvaSzcbGmNimmWH-48" target="TQEX-bvaSzcbGmNimmWH-17" edge="1">
          <mxGeometry relative="1" as="geometry">
            <mxPoint x="-1240" y="-1430" as="sourcePoint" />
            <Array as="points">
              <mxPoint x="-1460" y="-1380" />
              <mxPoint x="-1460" y="-1300" />
            </Array>
          </mxGeometry>
        </mxCell>
        <mxCell id="1b7-D6uKj-gsO6m6T2Pv-22" value="&lt;div&gt;&lt;span style=&quot;background-color: initial;&quot;&gt;placeWidgets&lt;/span&gt;&lt;/div&gt;&lt;div&gt;&lt;span style=&quot;background-color: initial;&quot;&gt;(&lt;/span&gt;&lt;span style=&quot;background-color: initial;&quot;&gt;struct MsgWidgetDescription[]&lt;/span&gt;&lt;span style=&quot;background-color: initial;&quot;&gt;)&lt;/span&gt;&lt;/div&gt;" style="text;html=1;align=center;verticalAlign=bottom;whiteSpace=wrap;rounded=0;" parent="1" vertex="1">
          <mxGeometry x="-1440" y="-1410" width="220" height="30" as="geometry" />
        </mxCell>
        <mxCell id="1b7-D6uKj-gsO6m6T2Pv-25" value="struct MsgType[]&lt;div&gt;getMsgTypes&lt;span style=&quot;background-color: initial;&quot;&gt;()&lt;/span&gt;&lt;/div&gt;" style="text;html=1;align=center;verticalAlign=bottom;whiteSpace=wrap;rounded=0;" parent="1" vertex="1">
          <mxGeometry x="-665" y="-1610" width="185" height="30" as="geometry" />
        </mxCell>
        <mxCell id="1b7-D6uKj-gsO6m6T2Pv-27" value="&lt;div&gt;write&lt;/div&gt;&lt;div&gt;&lt;span style=&quot;background-color: initial;&quot;&gt;(&lt;/span&gt;&lt;span style=&quot;background-color: initial;&quot;&gt;struct MsgType[],&lt;/span&gt;&lt;/div&gt;&lt;div&gt;&lt;span style=&quot;background-color: initial;&quot;&gt;struct MsgWidgetDescription[],&lt;/span&gt;&lt;/div&gt;&lt;div&gt;&lt;span style=&quot;background-color: initial;&quot;&gt;struct Node[])&lt;br&gt;&lt;/span&gt;&lt;/div&gt;" style="text;html=1;align=left;verticalAlign=middle;whiteSpace=wrap;rounded=0;" parent="1" vertex="1">
          <mxGeometry x="-900" y="-2000" width="170" height="60" as="geometry" />
        </mxCell>
        <mxCell id="1b7-D6uKj-gsO6m6T2Pv-30" value="struct MsgType[]&lt;div&gt;getMsgTypes&lt;span style=&quot;background-color: initial;&quot;&gt;()&lt;/span&gt;&lt;/div&gt;" style="text;html=1;align=center;verticalAlign=bottom;whiteSpace=wrap;rounded=0;" parent="1" vertex="1">
          <mxGeometry x="-720" y="-1290" width="240" height="30" as="geometry" />
        </mxCell>
        <mxCell id="1b7-D6uKj-gsO6m6T2Pv-32" style="edgeStyle=orthogonalEdgeStyle;rounded=0;orthogonalLoop=1;jettySize=auto;html=1;startArrow=block;startFill=0;entryX=1;entryY=0.75;entryDx=0;entryDy=0;exitX=0;exitY=0.25;exitDx=0;exitDy=0;exitPerimeter=0;" parent="1" source="TQEX-bvaSzcbGmNimmWH-48" target="TQEX-bvaSzcbGmNimmWH-14" edge="1">
          <mxGeometry relative="1" as="geometry">
            <Array as="points">
              <mxPoint x="-1500" y="-1540" />
              <mxPoint x="-1500" y="-1570" />
            </Array>
          </mxGeometry>
        </mxCell>
        <mxCell id="1b7-D6uKj-gsO6m6T2Pv-33" value="struct MsgWidgetDescription[]&lt;div&gt;getWidgets&lt;span style=&quot;background-color: initial;&quot;&gt;()&lt;/span&gt;&lt;/div&gt;" style="text;html=1;align=center;verticalAlign=bottom;whiteSpace=wrap;rounded=0;" parent="1" vertex="1">
          <mxGeometry x="-1480" y="-1570" width="260" height="30" as="geometry" />
        </mxCell>
        <mxCell id="1b7-D6uKj-gsO6m6T2Pv-36" value="struct MsgWidgetDescription[]&lt;div&gt;getTunedWidgets&lt;span style=&quot;background-color: initial;&quot;&gt;()&lt;/span&gt;&lt;/div&gt;" style="text;html=1;align=center;verticalAlign=bottom;whiteSpace=wrap;rounded=0;" parent="1" vertex="1">
          <mxGeometry x="-1400" y="-1370" width="180" height="30" as="geometry" />
        </mxCell>
        <mxCell id="1b7-D6uKj-gsO6m6T2Pv-40" style="edgeStyle=orthogonalEdgeStyle;rounded=0;orthogonalLoop=1;jettySize=auto;html=1;entryX=0.75;entryY=1;entryDx=0;entryDy=0;endArrow=block;endFill=1;exitX=0;exitY=0.35;exitDx=0;exitDy=0;exitPerimeter=0;" parent="1" source="TQEX-bvaSzcbGmNimmWH-48" target="TQEX-bvaSzcbGmNimmWH-14" edge="1">
          <mxGeometry relative="1" as="geometry">
            <Array as="points">
              <mxPoint x="-1580" y="-1500" />
            </Array>
          </mxGeometry>
        </mxCell>
        <mxCell id="1b7-D6uKj-gsO6m6T2Pv-41" style="edgeStyle=orthogonalEdgeStyle;rounded=0;orthogonalLoop=1;jettySize=auto;html=1;startArrow=block;startFill=0;exitX=0;exitY=0.45;exitDx=0;exitDy=0;exitPerimeter=0;entryX=0.25;entryY=1;entryDx=0;entryDy=0;" parent="1" source="TQEX-bvaSzcbGmNimmWH-48" target="TQEX-bvaSzcbGmNimmWH-14" edge="1">
          <mxGeometry relative="1" as="geometry">
            <mxPoint x="-1600" y="-1570" as="targetPoint" />
            <Array as="points">
              <mxPoint x="-1660" y="-1460" />
            </Array>
          </mxGeometry>
        </mxCell>
        <mxCell id="1b7-D6uKj-gsO6m6T2Pv-42" value="&lt;div&gt;&lt;span style=&quot;background-color: initial;&quot;&gt;registerRecipient&lt;/span&gt;&lt;/div&gt;&lt;div&gt;&lt;span style=&quot;background-color: initial;&quot;&gt;(&lt;/span&gt;&lt;span style=&quot;background-color: initial;&quot;&gt;struct Node&lt;/span&gt;&lt;span style=&quot;background-color: initial;&quot;&gt;)&lt;/span&gt;&lt;/div&gt;" style="text;html=1;align=center;verticalAlign=bottom;whiteSpace=wrap;rounded=0;" parent="1" vertex="1">
          <mxGeometry x="-1500" y="-1530" width="280" height="30" as="geometry" />
        </mxCell>
        <mxCell id="1b7-D6uKj-gsO6m6T2Pv-43" value="&lt;div&gt;&lt;span style=&quot;background-color: initial;&quot;&gt;struct Node&lt;/span&gt;&lt;/div&gt;&lt;div&gt;&lt;span style=&quot;background-color: initial;&quot;&gt;getRegisteredRecipients&lt;/span&gt;&lt;span style=&quot;background-color: initial;&quot;&gt;(&lt;/span&gt;&lt;span style=&quot;background-color: initial;&quot;&gt;)&lt;/span&gt;&lt;/div&gt;" style="text;html=1;align=center;verticalAlign=bottom;whiteSpace=wrap;rounded=0;" parent="1" vertex="1">
          <mxGeometry x="-1500" y="-1490" width="280" height="30" as="geometry" />
        </mxCell>
        <mxCell id="1b7-D6uKj-gsO6m6T2Pv-46" style="edgeStyle=orthogonalEdgeStyle;rounded=0;orthogonalLoop=1;jettySize=auto;html=1;entryX=0.75;entryY=1;entryDx=0;entryDy=0;endArrow=block;endFill=1;exitX=0;exitY=0.85;exitDx=0;exitDy=0;exitPerimeter=0;" parent="1" source="TQEX-bvaSzcbGmNimmWH-48" target="TQEX-bvaSzcbGmNimmWH-17" edge="1">
          <mxGeometry relative="1" as="geometry">
            <Array as="points">
              <mxPoint x="-1380" y="-1300" />
              <mxPoint x="-1380" y="-1190" />
              <mxPoint x="-1590" y="-1190" />
            </Array>
          </mxGeometry>
        </mxCell>
        <mxCell id="1b7-D6uKj-gsO6m6T2Pv-47" style="edgeStyle=orthogonalEdgeStyle;rounded=0;orthogonalLoop=1;jettySize=auto;html=1;entryX=0.25;entryY=1;entryDx=0;entryDy=0;startArrow=block;startFill=0;exitX=0;exitY=0.95;exitDx=0;exitDy=0;exitPerimeter=0;" parent="1" source="TQEX-bvaSzcbGmNimmWH-48" target="TQEX-bvaSzcbGmNimmWH-17" edge="1">
          <mxGeometry relative="1" as="geometry">
            <mxPoint x="-1220" y="-1250.0000000000005" as="sourcePoint" />
            <Array as="points">
              <mxPoint x="-1340" y="-1260" />
              <mxPoint x="-1340" y="-1150" />
              <mxPoint x="-1650" y="-1150" />
            </Array>
          </mxGeometry>
        </mxCell>
        <mxCell id="1b7-D6uKj-gsO6m6T2Pv-48" value="&lt;div&gt;&lt;span style=&quot;background-color: initial;&quot;&gt;registerSender&lt;/span&gt;&lt;/div&gt;&lt;div&gt;&lt;span style=&quot;background-color: initial;&quot;&gt;(&lt;/span&gt;&lt;span style=&quot;background-color: initial;&quot;&gt;struct Node&lt;/span&gt;&lt;span style=&quot;background-color: initial;&quot;&gt;)&lt;/span&gt;&lt;/div&gt;" style="text;html=1;align=center;verticalAlign=bottom;whiteSpace=wrap;rounded=0;" parent="1" vertex="1">
          <mxGeometry x="-1500" y="-1220" width="100" height="30" as="geometry" />
        </mxCell>
        <mxCell id="1b7-D6uKj-gsO6m6T2Pv-49" value="&lt;div&gt;&lt;span style=&quot;background-color: initial;&quot;&gt;struct Node&lt;/span&gt;&lt;/div&gt;&lt;div&gt;&lt;span style=&quot;background-color: initial;&quot;&gt;getRegisteredSenders&lt;/span&gt;&lt;span style=&quot;background-color: initial;&quot;&gt;(&lt;/span&gt;&lt;span style=&quot;background-color: initial;&quot;&gt;)&lt;/span&gt;&lt;/div&gt;" style="text;html=1;align=center;verticalAlign=bottom;whiteSpace=wrap;rounded=0;" parent="1" vertex="1">
          <mxGeometry x="-1630" y="-1180" width="270" height="30" as="geometry" />
        </mxCell>
        <mxCell id="1b7-D6uKj-gsO6m6T2Pv-61" style="edgeStyle=orthogonalEdgeStyle;rounded=0;orthogonalLoop=1;jettySize=auto;html=1;entryX=0;entryY=0.5;entryDx=0;entryDy=0;startArrow=block;startFill=1;exitX=0.4;exitY=0;exitDx=0;exitDy=0;exitPerimeter=0;dashed=1;endArrow=block;endFill=0;" parent="1" source="TQEX-bvaSzcbGmNimmWH-48" target="TQEX-bvaSzcbGmNimmWH-43" edge="1">
          <mxGeometry relative="1" as="geometry">
            <mxPoint x="-1000" y="-1730" as="sourcePoint" />
            <Array as="points">
              <mxPoint x="-1040" y="-1800" />
              <mxPoint x="-1980" y="-1800" />
              <mxPoint x="-1980" y="-1440" />
            </Array>
          </mxGeometry>
        </mxCell>
        <mxCell id="1b7-D6uKj-gsO6m6T2Pv-62" value="&amp;lt;- Vizualized data&lt;div&gt;Control Events:&lt;/div&gt;&lt;div&gt;&amp;nbsp;1. Sending Request&lt;div&gt;2. R&lt;span style=&quot;background-color: initial;&quot;&gt;aw Message&amp;nbsp;&lt;/span&gt;&lt;span style=&quot;background-color: initial;&quot;&gt;Editing&lt;/span&gt;&lt;/div&gt;&lt;div&gt;3. P&lt;span style=&quot;background-color: initial;&quot;&gt;arsed Message&amp;nbsp;&lt;/span&gt;&lt;span style=&quot;background-color: initial;&quot;&gt;Editing&lt;/span&gt;&lt;/div&gt;&lt;div&gt;&lt;span style=&quot;background-color: initial;&quot;&gt;4. Message Type Addition&lt;/span&gt;&lt;/div&gt;&lt;div&gt;&lt;span style=&quot;background-color: initial;&quot;&gt;5. Outgoing Message Addition&lt;/span&gt;&lt;/div&gt;&lt;div&gt;&lt;span style=&quot;background-color: initial;&quot;&gt;5. Node Registration&lt;/span&gt;&lt;/div&gt;&lt;div&gt;&lt;span style=&quot;background-color: initial;&quot;&gt;6. Self-Registration&lt;/span&gt;&lt;/div&gt;&lt;div&gt;&lt;span style=&quot;background-color: initial;&quot;&gt;7. Configuration Loading Request&lt;/span&gt;&lt;/div&gt;&lt;div&gt;&lt;span style=&quot;background-color: initial;&quot;&gt;8. Configuration Saving Request&lt;/span&gt;&lt;/div&gt;&lt;div&gt;&lt;span style=&quot;background-color: initial;&quot;&gt;9. Application Exit Request&amp;nbsp;&lt;/span&gt;&lt;span style=&quot;background-color: initial;&quot;&gt;-&amp;gt;&lt;/span&gt;&lt;/div&gt;&lt;/div&gt;" style="text;html=1;align=left;verticalAlign=middle;whiteSpace=wrap;rounded=0;" parent="1" vertex="1">
          <mxGeometry x="-2171" y="-1545" width="200" height="210" as="geometry" />
        </mxCell>
        <mxCell id="1b7-D6uKj-gsO6m6T2Pv-68" style="rounded=0;orthogonalLoop=1;jettySize=auto;html=1;exitX=1;exitY=0.3333333333333333;exitDx=0;exitDy=0;exitPerimeter=0;entryX=0;entryY=1;entryDx=0;entryDy=0;startArrow=block;startFill=0;endArrow=block;endFill=1;dashed=1;dashPattern=1 1;strokeWidth=3;" parent="1" source="1b7-D6uKj-gsO6m6T2Pv-67" target="TQEX-bvaSzcbGmNimmWH-43" edge="1">
          <mxGeometry relative="1" as="geometry" />
        </mxCell>
        <mxCell id="1b7-D6uKj-gsO6m6T2Pv-67" value="&lt;b style=&quot;font-size: 18px;&quot;&gt;User&lt;/b&gt;" style="shape=umlActor;verticalLabelPosition=bottom;verticalAlign=top;html=1;outlineConnect=0;fontSize=18;strokeWidth=3;" parent="1" vertex="1">
          <mxGeometry x="-2105" y="-1325" width="30" height="60" as="geometry" />
        </mxCell>
        <mxCell id="1b7-D6uKj-gsO6m6T2Pv-70" value="" style="verticalLabelPosition=bottom;verticalAlign=top;html=1;shape=mxgraph.basic.flash" parent="1" vertex="1">
          <mxGeometry x="-2210" y="-1445" width="20" height="40" as="geometry" />
        </mxCell>
        <mxCell id="1b7-D6uKj-gsO6m6T2Pv-72" style="edgeStyle=orthogonalEdgeStyle;rounded=0;orthogonalLoop=1;jettySize=auto;html=1;exitX=0;exitY=0.995;exitDx=0;exitDy=0;exitPerimeter=0;entryX=0.5;entryY=1;entryDx=0;entryDy=0;dashed=1;dashPattern=1 1;strokeWidth=3;endArrow=block;endFill=0;" parent="1" source="1b7-D6uKj-gsO6m6T2Pv-71" target="TQEX-bvaSzcbGmNimmWH-41" edge="1">
          <mxGeometry relative="1" as="geometry">
            <Array as="points">
              <mxPoint x="-1000" y="-810" />
            </Array>
          </mxGeometry>
        </mxCell>
        <mxCell id="1b7-D6uKj-gsO6m6T2Pv-71" value="" style="verticalLabelPosition=bottom;verticalAlign=top;html=1;shape=mxgraph.basic.flash" parent="1" vertex="1">
          <mxGeometry x="-820" y="-850" width="20" height="40" as="geometry" />
        </mxCell>
        <mxCell id="1b7-D6uKj-gsO6m6T2Pv-73" value="Message Reception" style="text;html=1;align=center;verticalAlign=bottom;whiteSpace=wrap;rounded=0;" parent="1" vertex="1">
          <mxGeometry x="-980" y="-830" width="140" height="20" as="geometry" />
        </mxCell>
        <mxCell id="1b7-D6uKj-gsO6m6T2Pv-75" style="edgeStyle=orthogonalEdgeStyle;rounded=0;orthogonalLoop=1;jettySize=auto;html=1;exitX=0;exitY=0.995;exitDx=0;exitDy=0;exitPerimeter=0;entryX=0.6;entryY=0;entryDx=0;entryDy=0;entryPerimeter=0;dashed=1;dashPattern=1 1;strokeWidth=3;" parent="1" source="1b7-D6uKj-gsO6m6T2Pv-74" target="TQEX-bvaSzcbGmNimmWH-48" edge="1">
          <mxGeometry relative="1" as="geometry">
            <Array as="points">
              <mxPoint x="-1420" y="-1840" />
              <mxPoint x="-960" y="-1840" />
            </Array>
          </mxGeometry>
        </mxCell>
        <mxCell id="1b7-D6uKj-gsO6m6T2Pv-74" value="" style="verticalLabelPosition=bottom;verticalAlign=top;html=1;shape=mxgraph.basic.flash" parent="1" vertex="1">
          <mxGeometry x="-1420" y="-2080" width="20" height="40" as="geometry" />
        </mxCell>
        <mxCell id="1b7-D6uKj-gsO6m6T2Pv-76" value="Application Launch" style="text;html=1;align=center;verticalAlign=bottom;whiteSpace=wrap;rounded=0;" parent="1" vertex="1">
          <mxGeometry x="-1400" y="-1860" width="420" height="20" as="geometry" />
        </mxCell>
        <mxCell id="1b7-D6uKj-gsO6m6T2Pv-80" value="" style="endArrow=block;html=1;rounded=0;entryX=1;entryY=0.63;entryDx=0;entryDy=0;entryPerimeter=0;endFill=1;exitX=0.75;exitY=1;exitDx=0;exitDy=0;exitPerimeter=0;" parent="1" source="TQEX-bvaSzcbGmNimmWH-48" target="TQEX-bvaSzcbGmNimmWH-48" edge="1">
          <mxGeometry width="50" height="50" relative="1" as="geometry">
            <mxPoint x="-720" y="-1200" as="sourcePoint" />
            <mxPoint x="-670" y="-1250" as="targetPoint" />
            <Array as="points">
              <mxPoint x="-880" y="-1330" />
            </Array>
          </mxGeometry>
        </mxCell>
        <mxCell id="1b7-D6uKj-gsO6m6T2Pv-81" value="" style="endArrow=block;html=1;rounded=0;endFill=1;exitX=1;exitY=0.63;exitDx=0;exitDy=0;exitPerimeter=0;entryX=0;entryY=0.55;entryDx=0;entryDy=0;entryPerimeter=0;" parent="1" source="TQEX-bvaSzcbGmNimmWH-48" target="TQEX-bvaSzcbGmNimmWH-48" edge="1">
          <mxGeometry width="50" height="50" relative="1" as="geometry">
            <mxPoint x="-890" y="-1230" as="sourcePoint" />
            <mxPoint x="-720" y="-1230" as="targetPoint" />
          </mxGeometry>
        </mxCell>
        <mxCell id="1b7-D6uKj-gsO6m6T2Pv-83" value="" style="endArrow=block;html=1;rounded=0;exitX=0;exitY=1;exitDx=0;exitDy=0;endFill=1;entryX=0.5;entryY=0;entryDx=0;entryDy=0;edgeStyle=orthogonalEdgeStyle;" parent="1" source="TQEX-bvaSzcbGmNimmWH-43" target="TQEX-bvaSzcbGmNimmWH-43" edge="1">
          <mxGeometry width="50" height="50" relative="1" as="geometry">
            <mxPoint x="-1690" y="-1290" as="sourcePoint" />
            <mxPoint x="-1640" y="-1340" as="targetPoint" />
            <Array as="points">
              <mxPoint x="-1925" y="-1440" />
            </Array>
          </mxGeometry>
        </mxCell>
        <mxCell id="1b7-D6uKj-gsO6m6T2Pv-84" value="" style="endArrow=block;html=1;rounded=0;exitX=0;exitY=0.5;exitDx=0;exitDy=0;entryX=0.25;entryY=0;entryDx=0;entryDy=0;endFill=1;" parent="1" source="TQEX-bvaSzcbGmNimmWH-14" target="TQEX-bvaSzcbGmNimmWH-14" edge="1">
          <mxGeometry width="50" height="50" relative="1" as="geometry">
            <mxPoint x="-1600" y="-1460" as="sourcePoint" />
            <mxPoint x="-1550" y="-1510" as="targetPoint" />
          </mxGeometry>
        </mxCell>
        <mxCell id="1b7-D6uKj-gsO6m6T2Pv-85" value="" style="endArrow=block;html=1;rounded=0;exitX=0;exitY=0.5;exitDx=0;exitDy=0;entryX=0.5;entryY=0;entryDx=0;entryDy=0;endFill=1;" parent="1" source="TQEX-bvaSzcbGmNimmWH-14" target="TQEX-bvaSzcbGmNimmWH-14" edge="1">
          <mxGeometry width="50" height="50" relative="1" as="geometry">
            <mxPoint x="-1690" y="-1590" as="sourcePoint" />
            <mxPoint x="-1650" y="-1650" as="targetPoint" />
          </mxGeometry>
        </mxCell>
        <mxCell id="1b7-D6uKj-gsO6m6T2Pv-86" value="" style="endArrow=block;html=1;rounded=0;exitX=0;exitY=0.5;exitDx=0;exitDy=0;entryX=0.75;entryY=0;entryDx=0;entryDy=0;endFill=1;" parent="1" source="TQEX-bvaSzcbGmNimmWH-14" target="TQEX-bvaSzcbGmNimmWH-14" edge="1">
          <mxGeometry width="50" height="50" relative="1" as="geometry">
            <mxPoint x="-1690" y="-1590" as="sourcePoint" />
            <mxPoint x="-1610" y="-1650" as="targetPoint" />
          </mxGeometry>
        </mxCell>
        <mxCell id="1b7-D6uKj-gsO6m6T2Pv-87" value="2" style="text;html=1;align=center;verticalAlign=middle;whiteSpace=wrap;rounded=0;fontSize=9;" parent="1" vertex="1">
          <mxGeometry x="-1650" y="-1655" width="10" height="10" as="geometry" />
        </mxCell>
        <mxCell id="1b7-D6uKj-gsO6m6T2Pv-88" value="3" style="text;html=1;align=center;verticalAlign=middle;whiteSpace=wrap;rounded=0;fontSize=9;" parent="1" vertex="1">
          <mxGeometry x="-1600" y="-1650" width="10" height="10" as="geometry" />
        </mxCell>
        <mxCell id="1b7-D6uKj-gsO6m6T2Pv-89" value="1" style="text;html=1;align=center;verticalAlign=middle;whiteSpace=wrap;rounded=0;fontSize=9;" parent="1" vertex="1">
          <mxGeometry x="-1680" y="-1655" width="10" height="10" as="geometry" />
        </mxCell>
        <mxCell id="1b7-D6uKj-gsO6m6T2Pv-91" value="" style="endArrow=block;html=1;rounded=0;exitX=0.2;exitY=0;exitDx=0;exitDy=0;exitPerimeter=0;jumpStyle=arc;jumpSize=12;endFill=1;entryX=0.25;entryY=1;entryDx=0;entryDy=0;entryPerimeter=0;" parent="1" source="TQEX-bvaSzcbGmNimmWH-48" target="TQEX-bvaSzcbGmNimmWH-48" edge="1">
          <mxGeometry width="50" height="50" relative="1" as="geometry">
            <mxPoint x="-1340" y="-1460" as="sourcePoint" />
            <mxPoint x="-1080" y="-1690" as="targetPoint" />
          </mxGeometry>
        </mxCell>
        <mxCell id="1b7-D6uKj-gsO6m6T2Pv-92" value="" style="endArrow=block;html=1;rounded=0;exitX=0.1;exitY=0;exitDx=0;exitDy=0;exitPerimeter=0;jumpStyle=arc;jumpSize=12;endFill=1;entryX=1;entryY=0.63;entryDx=0;entryDy=0;entryPerimeter=0;startArrow=block;startFill=0;" parent="1" source="TQEX-bvaSzcbGmNimmWH-48" target="TQEX-bvaSzcbGmNimmWH-48" edge="1">
          <mxGeometry width="50" height="50" relative="1" as="geometry">
            <mxPoint x="-1110" y="-1630" as="sourcePoint" />
            <mxPoint x="-1090" y="-1230" as="targetPoint" />
          </mxGeometry>
        </mxCell>
        <mxCell id="1b7-D6uKj-gsO6m6T2Pv-94" value="" style="endArrow=block;html=1;rounded=0;entryX=1;entryY=0.12;entryDx=0;entryDy=0;entryPerimeter=0;endFill=1;jumpStyle=arc;jumpSize=12;exitX=0;exitY=0.05;exitDx=0;exitDy=0;exitPerimeter=0;startArrow=block;startFill=0;" parent="1" source="TQEX-bvaSzcbGmNimmWH-48" target="TQEX-bvaSzcbGmNimmWH-48" edge="1">
          <mxGeometry width="50" height="50" relative="1" as="geometry">
            <mxPoint x="-1040" y="-1430" as="sourcePoint" />
            <mxPoint x="-990" y="-1480" as="targetPoint" />
            <Array as="points">
              <mxPoint x="-980" y="-1480" />
            </Array>
          </mxGeometry>
        </mxCell>
        <mxCell id="1b7-D6uKj-gsO6m6T2Pv-95" value="" style="endArrow=classic;html=1;rounded=0;exitX=0;exitY=1;exitDx=0;exitDy=0;endFill=1;entryX=0;entryY=0.5;entryDx=0;entryDy=0;" parent="1" source="TQEX-bvaSzcbGmNimmWH-43" target="TQEX-bvaSzcbGmNimmWH-43" edge="1">
          <mxGeometry width="50" height="50" relative="1" as="geometry">
            <mxPoint x="-1915" y="-1402" as="sourcePoint" />
            <mxPoint x="-1880" y="-1470" as="targetPoint" />
          </mxGeometry>
        </mxCell>
        <mxCell id="1b7-D6uKj-gsO6m6T2Pv-96" value="" style="endArrow=classic;html=1;rounded=0;entryX=0.8;entryY=0;entryDx=0;entryDy=0;entryPerimeter=0;exitX=0.4;exitY=0;exitDx=0;exitDy=0;exitPerimeter=0;endFill=1;" parent="1" source="TQEX-bvaSzcbGmNimmWH-48" target="TQEX-bvaSzcbGmNimmWH-48" edge="1">
          <mxGeometry width="50" height="50" relative="1" as="geometry">
            <mxPoint x="-1100" y="-1590" as="sourcePoint" />
            <mxPoint x="-1050" y="-1640" as="targetPoint" />
            <Array as="points">
              <mxPoint x="-910" y="-1610" />
            </Array>
          </mxGeometry>
        </mxCell>
        <mxCell id="1b7-D6uKj-gsO6m6T2Pv-98" value="7" style="text;html=1;align=center;verticalAlign=middle;whiteSpace=wrap;rounded=0;fontSize=9;" parent="1" vertex="1">
          <mxGeometry x="-915" y="-1625" width="10" height="10" as="geometry" />
        </mxCell>
        <mxCell id="1b7-D6uKj-gsO6m6T2Pv-102" value="" style="endArrow=none;html=1;rounded=0;entryX=0.8;entryY=0;entryDx=0;entryDy=0;entryPerimeter=0;startArrow=block;startFill=1;" parent="1" edge="1">
          <mxGeometry width="50" height="50" relative="1" as="geometry">
            <mxPoint x="-950" y="-1600" as="sourcePoint" />
            <mxPoint x="-880" y="-1640" as="targetPoint" />
            <Array as="points">
              <mxPoint x="-920" y="-1600" />
              <mxPoint x="-880" y="-1600" />
            </Array>
          </mxGeometry>
        </mxCell>
        <mxCell id="1b7-D6uKj-gsO6m6T2Pv-103" value="7" style="text;html=1;align=center;verticalAlign=middle;whiteSpace=wrap;rounded=0;fontSize=9;" parent="1" vertex="1">
          <mxGeometry x="-960" y="-1600" width="10" as="geometry" />
        </mxCell>
        <mxCell id="1b7-D6uKj-gsO6m6T2Pv-105" style="edgeStyle=orthogonalEdgeStyle;rounded=0;orthogonalLoop=1;jettySize=auto;html=1;exitX=1;exitY=0.5;exitDx=0;exitDy=0;endArrow=block;endFill=1;" parent="1" source="1b7-D6uKj-gsO6m6T2Pv-104" edge="1">
          <mxGeometry relative="1" as="geometry">
            <mxPoint x="-800" y="-1540" as="targetPoint" />
          </mxGeometry>
        </mxCell>
        <mxCell id="1b7-D6uKj-gsO6m6T2Pv-104" value="4, 7" style="text;html=1;align=center;verticalAlign=middle;whiteSpace=wrap;rounded=0;fontSize=9;" parent="1" vertex="1">
          <mxGeometry x="-850" y="-1545" width="20" height="10" as="geometry" />
        </mxCell>
        <mxCell id="1b7-D6uKj-gsO6m6T2Pv-106" style="edgeStyle=orthogonalEdgeStyle;rounded=0;orthogonalLoop=1;jettySize=auto;html=1;exitX=1;exitY=0.5;exitDx=0;exitDy=0;endArrow=block;endFill=1;" parent="1" edge="1">
          <mxGeometry relative="1" as="geometry">
            <mxPoint x="-800" y="-1340" as="targetPoint" />
            <mxPoint x="-830" y="-1340" as="sourcePoint" />
          </mxGeometry>
        </mxCell>
        <mxCell id="1b7-D6uKj-gsO6m6T2Pv-107" value="4, 7" style="text;html=1;align=center;verticalAlign=middle;whiteSpace=wrap;rounded=0;fontSize=9;" parent="1" vertex="1">
          <mxGeometry x="-850" y="-1345" width="20" height="10" as="geometry" />
        </mxCell>
        <mxCell id="1b7-D6uKj-gsO6m6T2Pv-110" style="edgeStyle=orthogonalEdgeStyle;rounded=0;orthogonalLoop=1;jettySize=auto;html=1;exitX=0;exitY=0.5;exitDx=0;exitDy=0;endArrow=block;endFill=1;" parent="1" source="1b7-D6uKj-gsO6m6T2Pv-111" edge="1">
          <mxGeometry relative="1" as="geometry">
            <mxPoint x="-1200" y="-1580" as="targetPoint" />
            <Array as="points">
              <mxPoint x="-1180" y="-1580" />
            </Array>
          </mxGeometry>
        </mxCell>
        <mxCell id="1b7-D6uKj-gsO6m6T2Pv-111" value="5, 7" style="text;html=1;align=center;verticalAlign=middle;whiteSpace=wrap;rounded=0;fontSize=9;" parent="1" vertex="1">
          <mxGeometry x="-1170" y="-1585" width="20" height="10" as="geometry" />
        </mxCell>
        <mxCell id="1b7-D6uKj-gsO6m6T2Pv-112" style="edgeStyle=orthogonalEdgeStyle;rounded=0;orthogonalLoop=1;jettySize=auto;html=1;exitX=0;exitY=0.5;exitDx=0;exitDy=0;endArrow=block;endFill=1;" parent="1" source="1b7-D6uKj-gsO6m6T2Pv-113" edge="1">
          <mxGeometry relative="1" as="geometry">
            <mxPoint x="-1200" y="-1380" as="targetPoint" />
            <Array as="points">
              <mxPoint x="-1180" y="-1380" />
            </Array>
          </mxGeometry>
        </mxCell>
        <mxCell id="1b7-D6uKj-gsO6m6T2Pv-113" value="7" style="text;html=1;align=center;verticalAlign=middle;whiteSpace=wrap;rounded=0;fontSize=9;" parent="1" vertex="1">
          <mxGeometry x="-1170" y="-1385" width="10" height="10" as="geometry" />
        </mxCell>
        <mxCell id="1b7-D6uKj-gsO6m6T2Pv-114" style="edgeStyle=orthogonalEdgeStyle;rounded=0;orthogonalLoop=1;jettySize=auto;html=1;exitX=0;exitY=0.5;exitDx=0;exitDy=0;endArrow=block;endFill=1;" parent="1" source="1b7-D6uKj-gsO6m6T2Pv-115" edge="1">
          <mxGeometry relative="1" as="geometry">
            <mxPoint x="-1200" y="-1500" as="targetPoint" />
            <Array as="points">
              <mxPoint x="-1180" y="-1500" />
            </Array>
          </mxGeometry>
        </mxCell>
        <mxCell id="1b7-D6uKj-gsO6m6T2Pv-115" value="7" style="text;html=1;align=center;verticalAlign=middle;whiteSpace=wrap;rounded=0;fontSize=9;" parent="1" vertex="1">
          <mxGeometry x="-1170" y="-1505" width="10" height="10" as="geometry" />
        </mxCell>
        <mxCell id="1b7-D6uKj-gsO6m6T2Pv-116" style="edgeStyle=orthogonalEdgeStyle;rounded=0;orthogonalLoop=1;jettySize=auto;html=1;exitX=0;exitY=0.5;exitDx=0;exitDy=0;endArrow=block;endFill=1;" parent="1" source="1b7-D6uKj-gsO6m6T2Pv-117" edge="1">
          <mxGeometry relative="1" as="geometry">
            <mxPoint x="-1200" y="-1300" as="targetPoint" />
            <Array as="points">
              <mxPoint x="-1180" y="-1300" />
            </Array>
          </mxGeometry>
        </mxCell>
        <mxCell id="1b7-D6uKj-gsO6m6T2Pv-117" value="7" style="text;html=1;align=center;verticalAlign=middle;whiteSpace=wrap;rounded=0;fontSize=9;" parent="1" vertex="1">
          <mxGeometry x="-1170" y="-1305" width="10" height="10" as="geometry" />
        </mxCell>
        <mxCell id="1b7-D6uKj-gsO6m6T2Pv-123" value="" style="endArrow=none;html=1;rounded=0;startArrow=classic;startFill=1;exitX=0;exitY=0.5;exitDx=0;exitDy=0;" parent="1" source="1b7-D6uKj-gsO6m6T2Pv-124" edge="1">
          <mxGeometry width="50" height="50" relative="1" as="geometry">
            <mxPoint x="-1000" y="-1600" as="sourcePoint" />
            <mxPoint x="-1040" y="-1640" as="targetPoint" />
            <Array as="points">
              <mxPoint x="-1030" y="-1610" />
            </Array>
          </mxGeometry>
        </mxCell>
        <mxCell id="1b7-D6uKj-gsO6m6T2Pv-124" value="8" style="text;html=1;align=center;verticalAlign=middle;whiteSpace=wrap;rounded=0;fontSize=9;" parent="1" vertex="1">
          <mxGeometry x="-1000" y="-1600" width="10" height="10" as="geometry" />
        </mxCell>
        <mxCell id="1b7-D6uKj-gsO6m6T2Pv-126" style="edgeStyle=orthogonalEdgeStyle;rounded=0;orthogonalLoop=1;jettySize=auto;html=1;exitX=1;exitY=0.5;exitDx=0;exitDy=0;endArrow=classic;endFill=1;startArrow=block;startFill=0;" parent="1" source="1b7-D6uKj-gsO6m6T2Pv-127" edge="1">
          <mxGeometry relative="1" as="geometry">
            <mxPoint x="-800" y="-1488" as="targetPoint" />
          </mxGeometry>
        </mxCell>
        <mxCell id="1b7-D6uKj-gsO6m6T2Pv-127" value="8" style="text;html=1;align=center;verticalAlign=middle;whiteSpace=wrap;rounded=0;fontSize=9;" parent="1" vertex="1">
          <mxGeometry x="-840" y="-1493" width="10" height="10" as="geometry" />
        </mxCell>
        <mxCell id="1b7-D6uKj-gsO6m6T2Pv-128" style="edgeStyle=orthogonalEdgeStyle;rounded=0;orthogonalLoop=1;jettySize=auto;html=1;exitX=1;exitY=0.5;exitDx=0;exitDy=0;endArrow=classic;endFill=1;startArrow=block;startFill=0;" parent="1" source="1b7-D6uKj-gsO6m6T2Pv-129" edge="1">
          <mxGeometry relative="1" as="geometry">
            <mxPoint x="-800" y="-1288" as="targetPoint" />
          </mxGeometry>
        </mxCell>
        <mxCell id="1b7-D6uKj-gsO6m6T2Pv-129" value="8" style="text;html=1;align=center;verticalAlign=middle;whiteSpace=wrap;rounded=0;fontSize=9;" parent="1" vertex="1">
          <mxGeometry x="-840" y="-1293" width="10" height="10" as="geometry" />
        </mxCell>
        <mxCell id="1b7-D6uKj-gsO6m6T2Pv-132" style="edgeStyle=orthogonalEdgeStyle;rounded=0;orthogonalLoop=1;jettySize=auto;html=1;exitX=1;exitY=0.5;exitDx=0;exitDy=0;endArrow=block;endFill=0;startArrow=classic;startFill=1;" parent="1" edge="1">
          <mxGeometry relative="1" as="geometry">
            <mxPoint x="-1170" y="-1540" as="targetPoint" />
            <mxPoint x="-1200" y="-1540" as="sourcePoint" />
          </mxGeometry>
        </mxCell>
        <mxCell id="1b7-D6uKj-gsO6m6T2Pv-134" value="8" style="text;html=1;align=center;verticalAlign=middle;whiteSpace=wrap;rounded=0;fontSize=9;" parent="1" vertex="1">
          <mxGeometry x="-1170" y="-1545" width="10" height="10" as="geometry" />
        </mxCell>
        <mxCell id="1b7-D6uKj-gsO6m6T2Pv-136" style="edgeStyle=orthogonalEdgeStyle;rounded=0;orthogonalLoop=1;jettySize=auto;html=1;exitX=1;exitY=0.5;exitDx=0;exitDy=0;endArrow=block;endFill=0;startArrow=classic;startFill=1;" parent="1" edge="1">
          <mxGeometry relative="1" as="geometry">
            <mxPoint x="-1170" y="-1460" as="targetPoint" />
            <mxPoint x="-1200" y="-1460" as="sourcePoint" />
          </mxGeometry>
        </mxCell>
        <mxCell id="1b7-D6uKj-gsO6m6T2Pv-137" value="8" style="text;html=1;align=center;verticalAlign=middle;whiteSpace=wrap;rounded=0;fontSize=9;" parent="1" vertex="1">
          <mxGeometry x="-1170" y="-1465" width="10" height="10" as="geometry" />
        </mxCell>
        <mxCell id="1b7-D6uKj-gsO6m6T2Pv-138" style="edgeStyle=orthogonalEdgeStyle;rounded=0;orthogonalLoop=1;jettySize=auto;html=1;exitX=1;exitY=0.5;exitDx=0;exitDy=0;endArrow=block;endFill=0;startArrow=classic;startFill=1;" parent="1" edge="1">
          <mxGeometry relative="1" as="geometry">
            <mxPoint x="-1170" y="-1340" as="targetPoint" />
            <mxPoint x="-1200" y="-1340" as="sourcePoint" />
          </mxGeometry>
        </mxCell>
        <mxCell id="1b7-D6uKj-gsO6m6T2Pv-139" value="8" style="text;html=1;align=center;verticalAlign=middle;whiteSpace=wrap;rounded=0;fontSize=9;" parent="1" vertex="1">
          <mxGeometry x="-1170" y="-1345" width="10" height="10" as="geometry" />
        </mxCell>
        <mxCell id="1b7-D6uKj-gsO6m6T2Pv-140" style="edgeStyle=orthogonalEdgeStyle;rounded=0;orthogonalLoop=1;jettySize=auto;html=1;exitX=1;exitY=0.5;exitDx=0;exitDy=0;endArrow=block;endFill=0;startArrow=classic;startFill=1;" parent="1" edge="1">
          <mxGeometry relative="1" as="geometry">
            <mxPoint x="-1170" y="-1260" as="targetPoint" />
            <mxPoint x="-1200" y="-1260" as="sourcePoint" />
          </mxGeometry>
        </mxCell>
        <mxCell id="1b7-D6uKj-gsO6m6T2Pv-141" value="8" style="text;html=1;align=center;verticalAlign=middle;whiteSpace=wrap;rounded=0;fontSize=9;" parent="1" vertex="1">
          <mxGeometry x="-1170" y="-1265" width="10" height="10" as="geometry" />
        </mxCell>
        <mxCell id="1b7-D6uKj-gsO6m6T2Pv-143" value="" style="endArrow=block;html=1;rounded=0;endFill=0;exitX=0.5;exitY=0;exitDx=0;exitDy=0;" parent="1" source="1b7-D6uKj-gsO6m6T2Pv-144" edge="1">
          <mxGeometry width="50" height="50" relative="1" as="geometry">
            <mxPoint x="-965" y="-1520" as="sourcePoint" />
            <mxPoint x="-840" y="-1640" as="targetPoint" />
          </mxGeometry>
        </mxCell>
        <mxCell id="1b7-D6uKj-gsO6m6T2Pv-144" value="8" style="text;html=1;align=center;verticalAlign=middle;whiteSpace=wrap;rounded=0;fontSize=9;" parent="1" vertex="1">
          <mxGeometry x="-845" y="-1610" width="10" height="10" as="geometry" />
        </mxCell>
        <mxCell id="1b7-D6uKj-gsO6m6T2Pv-147" value="" style="endArrow=none;html=1;rounded=0;startArrow=block;startFill=1;exitX=0;exitY=0.5;exitDx=0;exitDy=0;" parent="1" source="1b7-D6uKj-gsO6m6T2Pv-148" edge="1">
          <mxGeometry width="50" height="50" relative="1" as="geometry">
            <mxPoint x="-1000" y="-1575" as="sourcePoint" />
            <mxPoint x="-1040" y="-1640" as="targetPoint" />
            <Array as="points">
              <mxPoint x="-1030" y="-1585" />
            </Array>
          </mxGeometry>
        </mxCell>
        <mxCell id="1b7-D6uKj-gsO6m6T2Pv-148" value="4" style="text;html=1;align=center;verticalAlign=middle;whiteSpace=wrap;rounded=0;fontSize=9;" parent="1" vertex="1">
          <mxGeometry x="-1000" y="-1575" width="10" height="10" as="geometry" />
        </mxCell>
        <mxCell id="1b7-D6uKj-gsO6m6T2Pv-150" value="" style="endArrow=block;html=1;rounded=0;endFill=1;" parent="1" edge="1">
          <mxGeometry width="50" height="50" relative="1" as="geometry">
            <mxPoint x="-1040" y="-1640" as="sourcePoint" />
            <mxPoint x="-1080" y="-1620" as="targetPoint" />
            <Array as="points">
              <mxPoint x="-1060" y="-1620" />
            </Array>
          </mxGeometry>
        </mxCell>
        <mxCell id="1b7-D6uKj-gsO6m6T2Pv-151" value="5" style="text;html=1;align=center;verticalAlign=middle;whiteSpace=wrap;rounded=0;fontSize=9;" parent="1" vertex="1">
          <mxGeometry x="-1090" y="-1625" width="10" height="10" as="geometry" />
        </mxCell>
        <mxCell id="1b7-D6uKj-gsO6m6T2Pv-157" value="Data to be shown" style="text;html=1;align=center;verticalAlign=bottom;whiteSpace=wrap;rounded=0;" parent="1" vertex="1">
          <mxGeometry x="-1870" y="-1300" width="130" height="20" as="geometry" />
        </mxCell>
        <mxCell id="1b7-D6uKj-gsO6m6T2Pv-158" value="Received Messages" style="text;html=1;align=left;verticalAlign=middle;whiteSpace=wrap;rounded=0;" parent="1" vertex="1">
          <mxGeometry x="-900" y="-960" width="120" height="40" as="geometry" />
        </mxCell>
        <mxCell id="1b7-D6uKj-gsO6m6T2Pv-159" value="Messages to be sent" style="text;html=1;align=right;verticalAlign=middle;whiteSpace=wrap;rounded=0;spacingRight=3;" parent="1" vertex="1">
          <mxGeometry x="-1220" y="-960" width="120" height="40" as="geometry" />
        </mxCell>
        <mxCell id="1b7-D6uKj-gsO6m6T2Pv-160" value="Configuration to be saved" style="text;html=1;align=left;verticalAlign=middle;whiteSpace=wrap;rounded=0;" parent="1" vertex="1">
          <mxGeometry x="-900" y="-2220" width="150" height="40" as="geometry" />
        </mxCell>
        <mxCell id="1b7-D6uKj-gsO6m6T2Pv-161" value="&amp;lt;- Configuration to be loaded /&lt;div&gt;Open Request -&amp;gt;&lt;/div&gt;" style="text;html=1;align=right;verticalAlign=middle;whiteSpace=wrap;rounded=0;spacingRight=3;" parent="1" vertex="1">
          <mxGeometry x="-1270" y="-2220" width="170" height="40" as="geometry" />
        </mxCell>
        <mxCell id="1b7-D6uKj-gsO6m6T2Pv-164" value="1, 2, 3" style="text;html=1;align=center;verticalAlign=middle;whiteSpace=wrap;rounded=0;fontSize=9;" parent="1" vertex="1">
          <mxGeometry x="-1887" y="-1491" width="30" height="10" as="geometry" />
        </mxCell>
        <mxCell id="1b7-D6uKj-gsO6m6T2Pv-165" value="4, 5, 6, 7, 8, 9" style="text;html=1;align=center;verticalAlign=middle;whiteSpace=wrap;rounded=0;fontSize=9;" parent="1" vertex="1">
          <mxGeometry x="-1971" y="-1435.5" width="30" height="23" as="geometry" />
        </mxCell>
        <mxCell id="1b7-D6uKj-gsO6m6T2Pv-170" value="NetworkAdapter" style="rounded=1;whiteSpace=wrap;html=1;fillColor=none;dashed=1;verticalAlign=top;fontSize=15;fontStyle=1" parent="1" vertex="1">
          <mxGeometry x="-1180" y="-1120" width="360" height="140" as="geometry" />
        </mxCell>
        <mxCell id="Qe3F9I1hZKyghtVbv9CF-2" value="Name" style="rounded=1;whiteSpace=wrap;html=1;fontSize=18;fontStyle=1;strokeWidth=3;" parent="1" vertex="1">
          <mxGeometry x="-1840" y="-1030" width="80" height="40" as="geometry" />
        </mxCell>
        <mxCell id="Qe3F9I1hZKyghtVbv9CF-3" value="Legend:" style="text;html=1;align=center;verticalAlign=middle;whiteSpace=wrap;rounded=0;fontStyle=1;fontSize=18;" parent="1" vertex="1">
          <mxGeometry x="-1870" y="-1080" width="80" height="40" as="geometry" />
        </mxCell>
        <mxCell id="Qe3F9I1hZKyghtVbv9CF-5" value="- Functional block" style="text;html=1;align=left;verticalAlign=middle;whiteSpace=wrap;rounded=0;" parent="1" vertex="1">
          <mxGeometry x="-1740" y="-1030" width="440" height="40" as="geometry" />
        </mxCell>
        <mxCell id="Qe3F9I1hZKyghtVbv9CF-6" value="" style="endArrow=none;html=1;rounded=0;" parent="1" edge="1">
          <mxGeometry width="50" height="50" relative="1" as="geometry">
            <mxPoint x="-1840" y="-970" as="sourcePoint" />
            <mxPoint x="-1760" y="-970" as="targetPoint" />
          </mxGeometry>
        </mxCell>
        <mxCell id="Qe3F9I1hZKyghtVbv9CF-7" value="- Interaction" style="text;html=1;align=left;verticalAlign=middle;whiteSpace=wrap;rounded=0;" parent="1" vertex="1">
          <mxGeometry x="-1740" y="-990" width="440" height="40" as="geometry" />
        </mxCell>
        <mxCell id="Qe3F9I1hZKyghtVbv9CF-8" value="" style="endArrow=classic;html=1;rounded=0;entryX=0.211;entryY=0.419;entryDx=0;entryDy=0;entryPerimeter=0;endFill=1;" parent="1" edge="1">
          <mxGeometry width="50" height="50" relative="1" as="geometry">
            <mxPoint x="-1840" y="-930" as="sourcePoint" />
            <mxPoint x="-1760" y="-930" as="targetPoint" />
          </mxGeometry>
        </mxCell>
        <mxCell id="Qe3F9I1hZKyghtVbv9CF-9" value="- Control (left calls right)" style="text;html=1;align=left;verticalAlign=middle;whiteSpace=wrap;rounded=0;" parent="1" vertex="1">
          <mxGeometry x="-1740" y="-950" width="440" height="40" as="geometry" />
        </mxCell>
        <mxCell id="Qe3F9I1hZKyghtVbv9CF-10" value="" style="endArrow=block;html=1;rounded=0;entryX=0.211;entryY=0.419;entryDx=0;entryDy=0;entryPerimeter=0;endFill=1;" parent="1" edge="1">
          <mxGeometry width="50" height="50" relative="1" as="geometry">
            <mxPoint x="-1840" y="-890" as="sourcePoint" />
            <mxPoint x="-1760" y="-890" as="targetPoint" />
          </mxGeometry>
        </mxCell>
        <mxCell id="Qe3F9I1hZKyghtVbv9CF-11" value="- Control and data passing (left calls right and passes them data)" style="text;html=1;align=left;verticalAlign=middle;whiteSpace=wrap;rounded=0;" parent="1" vertex="1">
          <mxGeometry x="-1740" y="-910" width="440" height="40" as="geometry" />
        </mxCell>
        <mxCell id="Qe3F9I1hZKyghtVbv9CF-12" value="" style="endArrow=block;html=1;rounded=0;entryX=0.211;entryY=0.419;entryDx=0;entryDy=0;entryPerimeter=0;endFill=0;" parent="1" edge="1">
          <mxGeometry width="50" height="50" relative="1" as="geometry">
            <mxPoint x="-1840" y="-850" as="sourcePoint" />
            <mxPoint x="-1760" y="-850" as="targetPoint" />
          </mxGeometry>
        </mxCell>
        <mxCell id="Qe3F9I1hZKyghtVbv9CF-13" value="- Data passing (left replies right with data)" style="text;html=1;align=left;verticalAlign=middle;whiteSpace=wrap;rounded=0;" parent="1" vertex="1">
          <mxGeometry x="-1740" y="-870" width="440" height="40" as="geometry" />
        </mxCell>
        <mxCell id="Qe3F9I1hZKyghtVbv9CF-15" value="struct Str[]&lt;div&gt;func&lt;div&gt;(struct Str2)&lt;/div&gt;&lt;/div&gt;" style="text;html=1;align=right;verticalAlign=middle;whiteSpace=wrap;rounded=0;" parent="1" vertex="1">
          <mxGeometry x="-1840" y="-835" width="80" height="50" as="geometry" />
        </mxCell>
        <mxCell id="Qe3F9I1hZKyghtVbv9CF-16" value="- Interaction via function &quot;func&quot; call with passing structure of Str2 type and returinig collection of structures of Str type" style="text;html=1;align=left;verticalAlign=middle;whiteSpace=wrap;rounded=0;" parent="1" vertex="1">
          <mxGeometry x="-1740" y="-830" width="440" height="40" as="geometry" />
        </mxCell>
        <mxCell id="Qe3F9I1hZKyghtVbv9CF-17" value="func1&lt;span style=&quot;background-color: initial;&quot;&gt;()&lt;/span&gt;&lt;div&gt;&lt;span style=&quot;background-color: initial;&quot;&gt;callback&lt;/span&gt;&lt;/div&gt;" style="text;html=1;align=right;verticalAlign=middle;whiteSpace=wrap;rounded=0;" parent="1" vertex="1">
          <mxGeometry x="-1840" y="-770" width="80" height="40" as="geometry" />
        </mxCell>
        <mxCell id="Qe3F9I1hZKyghtVbv9CF-18" value="- Interaction via call &quot;func1&quot; callback without input parameters and returinig value" style="text;html=1;align=left;verticalAlign=middle;whiteSpace=wrap;rounded=0;" parent="1" vertex="1">
          <mxGeometry x="-1740" y="-770" width="440" height="40" as="geometry" />
        </mxCell>
        <mxCell id="Qe3F9I1hZKyghtVbv9CF-19" value="System" style="ellipse;whiteSpace=wrap;html=1;dashed=1;" parent="1" vertex="1">
          <mxGeometry x="-1840" y="-720" width="80" height="40" as="geometry" />
        </mxCell>
        <mxCell id="Qe3F9I1hZKyghtVbv9CF-20" value="- Interal system" style="text;html=1;align=left;verticalAlign=middle;whiteSpace=wrap;rounded=0;" parent="1" vertex="1">
          <mxGeometry x="-1740" y="-720" width="440" height="40" as="geometry" />
        </mxCell>
        <mxCell id="Qe3F9I1hZKyghtVbv9CF-21" value="" style="endArrow=classic;html=1;rounded=0;entryX=0.211;entryY=0.419;entryDx=0;entryDy=0;entryPerimeter=0;endFill=1;dashed=1;" parent="1" edge="1">
          <mxGeometry width="50" height="50" relative="1" as="geometry">
            <mxPoint x="-1840" y="-650" as="sourcePoint" />
            <mxPoint x="-1760" y="-650" as="targetPoint" />
          </mxGeometry>
        </mxCell>
        <mxCell id="Qe3F9I1hZKyghtVbv9CF-22" value="- Interaction with external system with explanation how" style="text;html=1;align=left;verticalAlign=middle;whiteSpace=wrap;rounded=0;" parent="1" vertex="1">
          <mxGeometry x="-1740" y="-670" width="440" height="40" as="geometry" />
        </mxCell>
        <mxCell id="Qe3F9I1hZKyghtVbv9CF-23" value="Data" style="text;html=1;align=center;verticalAlign=bottom;whiteSpace=wrap;rounded=0;" parent="1" vertex="1">
          <mxGeometry x="-1830" y="-670" width="50" height="20" as="geometry" />
        </mxCell>
        <mxCell id="Qe3F9I1hZKyghtVbv9CF-24" value="&lt;b style=&quot;font-size: 18px;&quot;&gt;Customer&lt;/b&gt;" style="shape=umlActor;verticalLabelPosition=bottom;verticalAlign=top;html=1;outlineConnect=0;fontSize=18;strokeWidth=3;" parent="1" vertex="1">
          <mxGeometry x="-1815" y="-620" width="30" height="60" as="geometry" />
        </mxCell>
        <mxCell id="Qe3F9I1hZKyghtVbv9CF-25" value="- User of certain type" style="text;html=1;align=left;verticalAlign=middle;whiteSpace=wrap;rounded=0;" parent="1" vertex="1">
          <mxGeometry x="-1740" y="-600" width="440" height="40" as="geometry" />
        </mxCell>
        <mxCell id="Qe3F9I1hZKyghtVbv9CF-26" value="" style="verticalLabelPosition=bottom;verticalAlign=top;html=1;shape=mxgraph.basic.flash" parent="1" vertex="1">
          <mxGeometry x="-1810" y="-510" width="20" height="40" as="geometry" />
        </mxCell>
        <mxCell id="Qe3F9I1hZKyghtVbv9CF-27" value="- Event" style="text;html=1;align=left;verticalAlign=middle;whiteSpace=wrap;rounded=0;" parent="1" vertex="1">
          <mxGeometry x="-1740" y="-510" width="440" height="40" as="geometry" />
        </mxCell>
        <mxCell id="Qe3F9I1hZKyghtVbv9CF-30" value="" style="endArrow=block;html=1;rounded=0;entryX=0.211;entryY=0.419;entryDx=0;entryDy=0;entryPerimeter=0;endFill=0;dashed=1;strokeWidth=3;dashPattern=1 2;" parent="1" edge="1">
          <mxGeometry width="50" height="50" relative="1" as="geometry">
            <mxPoint x="-1840" y="-430" as="sourcePoint" />
            <mxPoint x="-1760" y="-430" as="targetPoint" />
          </mxGeometry>
        </mxCell>
        <mxCell id="Qe3F9I1hZKyghtVbv9CF-31" value="- Event propagation with explanation how and specifying of ceratin event&#39;s name" style="text;html=1;align=left;verticalAlign=middle;whiteSpace=wrap;rounded=0;" parent="1" vertex="1">
          <mxGeometry x="-1740" y="-450" width="440" height="40" as="geometry" />
        </mxCell>
        <mxCell id="Qe3F9I1hZKyghtVbv9CF-32" value="Event1" style="text;html=1;align=left;verticalAlign=bottom;whiteSpace=wrap;rounded=0;" parent="1" vertex="1">
          <mxGeometry x="-1830" y="-450" width="50" height="20" as="geometry" />
        </mxCell>
        <mxCell id="Qe3F9I1hZKyghtVbv9CF-33" value="" style="rounded=1;whiteSpace=wrap;html=1;fontSize=18;fontStyle=1;strokeWidth=3;" parent="1" vertex="1">
          <mxGeometry x="-1840" y="-410" width="80" height="40" as="geometry" />
        </mxCell>
        <mxCell id="Qe3F9I1hZKyghtVbv9CF-34" value="- Internal algorithm with control and data direction indication" style="text;html=1;align=left;verticalAlign=middle;whiteSpace=wrap;rounded=0;" parent="1" vertex="1">
          <mxGeometry x="-1740" y="-410" width="440" height="40" as="geometry" />
        </mxCell>
        <mxCell id="Qe3F9I1hZKyghtVbv9CF-36" value="" style="endArrow=classic;html=1;rounded=0;exitX=0;exitY=0.5;exitDx=0;exitDy=0;entryX=1;entryY=0.5;entryDx=0;entryDy=0;endFill=1;startArrow=block;startFill=0;" parent="1" source="Qe3F9I1hZKyghtVbv9CF-33" target="Qe3F9I1hZKyghtVbv9CF-33" edge="1">
          <mxGeometry width="50" height="50" relative="1" as="geometry">
            <mxPoint x="-1710" y="-430" as="sourcePoint" />
            <mxPoint x="-1660" y="-480" as="targetPoint" />
          </mxGeometry>
        </mxCell>
        <mxCell id="Qe3F9I1hZKyghtVbv9CF-38" value="8" style="text;html=1;align=center;verticalAlign=middle;whiteSpace=wrap;rounded=0;fontSize=9;" parent="1" vertex="1">
          <mxGeometry x="-1785" y="-355" width="10" height="10" as="geometry" />
        </mxCell>
        <mxCell id="Qe3F9I1hZKyghtVbv9CF-39" value="- Interaction or internal algorithm with control and data direction indication for certain use case" style="text;html=1;align=left;verticalAlign=middle;whiteSpace=wrap;rounded=0;" parent="1" vertex="1">
          <mxGeometry x="-1740" y="-370" width="440" height="40" as="geometry" />
        </mxCell>
        <mxCell id="Qe3F9I1hZKyghtVbv9CF-37" style="edgeStyle=orthogonalEdgeStyle;rounded=0;orthogonalLoop=1;jettySize=auto;html=1;endArrow=block;endFill=0;startArrow=classic;startFill=1;" parent="1" edge="1">
          <mxGeometry relative="1" as="geometry">
            <mxPoint x="-1785" y="-350" as="targetPoint" />
            <mxPoint x="-1820" y="-350" as="sourcePoint" />
          </mxGeometry>
        </mxCell>
        <mxCell id="ORYQ8BlnzoVqKQQbpYbt-3" value="&lt;div&gt;&lt;span style=&quot;background-color: initial;&quot;&gt;show&lt;/span&gt;&lt;/div&gt;&lt;div&gt;&lt;span style=&quot;background-color: initial;&quot;&gt;(struct&amp;nbsp;&lt;/span&gt;&lt;span style=&quot;background-color: initial;&quot;&gt;struct ParsedMsg&lt;/span&gt;&lt;span style=&quot;background-color: initial;&quot;&gt;)&lt;/span&gt;&lt;/div&gt;" style="text;html=1;align=center;verticalAlign=bottom;whiteSpace=wrap;rounded=0;" parent="1" vertex="1">
          <mxGeometry x="-1500" y="-1450" width="280" height="30" as="geometry" />
        </mxCell>
        <mxCell id="ORYQ8BlnzoVqKQQbpYbt-5" value="&amp;lt;- Loaded self-node data&lt;div&gt;Control Events,&lt;/div&gt;&lt;div&gt;Entered self-node data -&amp;gt;&lt;/div&gt;" style="text;html=1;align=center;verticalAlign=bottom;whiteSpace=wrap;rounded=0;" parent="1" vertex="1">
          <mxGeometry x="-1960" y="-1850" width="520" height="50" as="geometry" />
        </mxCell>
      </root>
    </mxGraphModel>
  </diagram>
</mxfile>
